#!OML:ASF H:\BreakDance\Project 1\Capture day 1\Session 1\Male.ASF
:FULLY-SPECIFIED
:DEGREES
2320
root -6.71758 7.76452 0.132102 21.6093 -487.802 -429.088
lowerback 10.3884 -8.72317 -1.14629
upperback 10.5973 -13.1638 0.224704
thorax 5.80874 -7.25909 1.42911
lowerneck -1.1576 7.95509 -0.279919
upperneck 3.43519 10.9616 -18.9861
head 2.28086 4.77721 -5.37402
rclavicle -6.36111e-014 -1.90833e-014
rhumerus -52.0063 -37.0911 -19.6296
rradius 24.2827
rwrist -3.3589
rhand -35.0688 -64.2585
rfingers 7.12502
rthumb -8.21117 454.079
lclavicle -6.36111e-014 -1.90833e-014
lhumerus 14.6779 -14.8788 16.2673
lradius 34.8336
lwrist -8.95054
lhand -20.4787 -392.55
lfingers 7.12502
lthumb 5.87763 -2.65117
rfemur -77.1931 -13.1059 -14.8284
rtibia 99.118
rfoot 4.63346 15.4614
rtoes -2.16308
lfemur 728.023 40.9644 783.527
ltibia 134.355
lfoot 21.4268 -52.3788
ltoes 9.22222
2321
root -6.73427 7.92668 0.109168 21.3322 -487.337 -428.805
lowerback 11.1866 -9.01741 -1.04052
upperback 10.6409 -13.6477 0.707391
thorax 5.56061 -7.55049 2.02145
lowerneck -0.393301 8.25217 -1.85341
upperneck 2.46914 11.1113 -18.3299
head 1.75429 4.95292 -4.97087
rclavicle 1.51871e-013 6.67916e-014
rhumerus -50.8832 -38.1037 -18.0648
rradius 22.4723
rwrist -0.272553
rhand -34.3689 -64.1694
rfingers 7.12502
rthumb -7.53569 454.015
lclavicle 1.51871e-013 6.67916e-014
lhumerus 13.235 -17.9706 16.6988
lradius 33.5195
lwrist -9.31604
lhand -18.2685 -391.842
lfingers 7.12502
lthumb 8.01122 -2.0136
rfemur -77.1729 -15.1759 -15.5308
rtibia 103.716
rfoot 3.2984 16.8478
rtoes -3.72751
lfemur 725.957 42.5258 780.478
ltibia 133.283
lfoot 13.0839 -46.1512
ltoes 0.525985
2322
root -6.78903 8.02267 0.0777813 21.7697 -487.258 -429.299
lowerback 11.6689 -8.85649 -0.864209
upperback 11.1066 -13.4927 0.547976
thorax 5.72713 -7.49333 1.79896
lowerneck -1.68719 7.85921 -0.394219
upperneck 3.00039 10.7909 -19.8735
head 2.27443 4.64578 -5.62181
rclavicle 1.4392e-013 -5.40694e-014
rhumerus -51.9752 -39.8425 -15.8224
rradius 21.0408
rwrist 3.08285
rhand -33.2101 -63.9655
rfingers 7.12502
rthumb -6.41701 453.848
lclavicle 1.4392e-013 -5.40694e-014
lhumerus 13.5644 -20.4515 16.6814
lradius 32.3252
lwrist -9.05506
lhand -16.292 -390.2
lfingers 7.12502
lthumb 9.91844 -0.453195
rfemur -77.8337 -17.9292 -16.9783
rtibia 108.545
rfoot 2.31687 18.3969
rtoes -2.19912
lfemur 723.442 43.9997 776.471
ltibia 132.121
lfoot 6.87887 -39.2577
ltoes -3.71009
2323
root -6.84551 8.11451 0.0435284 21.9192 -487.149 -429.421
lowerback 12.1828 -8.61647 -0.399728
upperback 11.7082 -13.2294 0.395201
thorax 5.96598 -7.36971 1.41909
lowerneck -2.82471 7.65655 0.0967192
upperneck 3.09716 10.6194 -20.1044
head 2.52313 4.49652 -5.73342
rclavicle -1.145e-013 -5.40694e-014
rhumerus -55.0875 -43.4293 -10.7902
rradius 19.3984
rwrist 10.9399
rhand -29.3569 -62.0975
rfingers 7.12502
rthumb -2.6964 452.06
lclavicle -1.145e-013 -5.40694e-014
lhumerus 14.0221 -22.3917 16.8852
lradius 31.2137
lwrist -8.25429
lhand -14.9101 -388.53
lfingers 7.12502
lthumb 11.2515 1.14864
rfemur -78.2579 -21.0594 -18.3848
rtibia 113.16
rfoot 1.55049 19.5747
rtoes 2.31583
lfemur 720.595 45.1732 772.085
ltibia 130.508
lfoot 3.08153 -31.8304
ltoes -2.05218
2324
root -6.89661 8.19586 0.0112012 21.795 -486.743 -428.87
lowerback 12.9234 -8.77545 0.0991666
upperback 11.7628 -13.4561 0.731074
thorax 5.6261 -7.49124 1.65536
lowerneck -2.73456 7.73209 0.137664
upperneck 2.65819 10.6394 -20.926
head 2.43299 4.49889 -6.00404
rclavicle 3.10104e-014 -5.08889e-014
rhumerus -58.3043 -46.7862 -4.31715
rradius 17.7865
rwrist 20.9605
rhand -23.876 -59.2461
rfingers 7.12502
rthumb 2.5971 630.79
lclavicle 3.10104e-014 -5.08889e-014
lhumerus 12.52 -23.6232 18.7522
lradius 30.0242
lwrist -7.8712
lhand -13.8968 -387.084
lfingers 7.12502
lthumb 12.2286 2.53823
rfemur -78.6502 -24.9212 -19.3169
rtibia 117.617
rfoot 0.682702 20.4726
rtoes 2.55106
lfemur 717.66 46.0099 768.726
ltibia 128.874
lfoot 0.462309 -25.7158
ltoes 2.85459
2325
root -6.94514 8.27581 -0.0158477 22.3758 -486.506 -429.164
lowerback 13.7228 -8.93347 0.0411759
upperback 11.8394 -13.7222 0.892229
thorax 5.364 -7.66579 2.00748
lowerneck -2.72533 7.81878 0.324324
upperneck 2.16931 10.6642 -21.9077
head 2.36198 4.49904 -6.34751
rclavicle 5.64548e-014 -1.08139e-013
rhumerus -59.6713 -48.2488 -1.20597
rradius 16.8187
rwrist 25.9398
rhand -21.7011 -58.3032
rfingers 7.12502
rthumb 4.69739 631.769
lclavicle 5.64548e-014 -1.08139e-013
lhumerus 10.7097 -23.4535 21.3201
lradius 28.7664
lwrist -8.2868
lhand -12.6308 -385.564
lfingers 7.12502
lthumb 13.449 3.98211
rfemur -78.7613 -29.7124 -21.03
rtibia 121.63
rfoot -0.337467 21.5457
rtoes 4.60476
lfemur 712.456 46.1242 761.129
ltibia 126.103
lfoot -1.0367 -19.6698
ltoes 4.21977
2326
root -7.00915 8.33184 -0.0466284 22.9173 -486.486 -429.696
lowerback 14.6261 -8.97688 -0.265295
upperback 11.9922 -13.8632 0.893286
thorax 5.14443 -7.79264 2.32607
lowerneck -2.33708 7.90335 0.0414766
upperneck 1.5315 10.6231 -22.2587
head 2.10875 4.52924 -6.43726
rclavicle 5.08889e-014 -3.18055e-015
rhumerus -58.1333 -47.0966 -2.77971
rradius 16.6254
rwrist 25.4658
rhand -21.3665 -57.6888
rfingers 7.12502
rthumb 5.0205 632.391
lclavicle 5.08889e-014 -3.18055e-015
lhumerus 8.69003 -22.6714 24.1532
lradius 27.7732
lwrist -8.86739
lhand -11.4627 -384.05
lfingers 7.12502
lthumb 14.5747 5.41761
rfemur -78.5501 -34.7716 -23.219
rtibia 125.185
rfoot -1.60648 22.1767
rtoes 6.44905
lfemur 708.058 45.1701 754.248
ltibia 123.103
lfoot -2.71043 -15.7161
ltoes 3.39927
2327
root -7.0639 8.36077 -0.0755246 21.8286 -485.928 -427.334
lowerback 15.2261 -9.15912 1.13614
upperback 11.9983 -13.993 1.41143
thorax 4.67923 -7.80575 2.28558
lowerneck -1.93209 8.07101 -0.683733
upperneck 0.658805 10.6396 -22.1651
head 1.73845 4.62345 -6.31777
rclavicle 4.29375e-014 5.725e-014
rhumerus -56.6282 -46.0476 -4.31574
rradius 16.8541
rwrist 25.3515
rhand -19.1525 -55.5048
rfingers 7.12502
rthumb 7.15796 634.636
lclavicle 4.29375e-014 5.725e-014
lhumerus 6.47734 -21.5003 27.0041
lradius 26.8475
lwrist -9.16809
lhand -10.5099 -383.514
lfingers 7.12502
lthumb 15.4925 5.88514
rfemur -79.148 -39.538 -22.8387
rtibia 128.395
rfoot -2.45218 21.3808
rtoes 8.83903
lfemur 703.397 44.5659 750.637
ltibia 120.239
lfoot -3.30467 -14.4615
ltoes 2.95355
2328
root -7.12415 8.38167 -0.105532 21.2606 -485.699 -425.818
lowerback 16.0736 -9.3038 1.81659
upperback 12.0551 -14.1376 1.69719
thorax 4.24873 -7.87562 2.41414
lowerneck -1.92602 8.2934 -1.04188
upperneck -0.0593642 10.7934 -22.3218
head 1.53429 4.74477 -6.31312
rclavicle -1.1291e-013 7.63333e-014
rhumerus -54.8096 -44.8938 -6.25014
rradius 17.3442
rwrist 25.05
rhand -15.1455 -53.6842
rfingers 7.12502
rthumb 11.0244 636.625
lclavicle -1.1291e-013 7.63333e-014
lhumerus 4.12636 -20.4165 29.5526
lradius 26.0069
lwrist -9.53658
lhand -10.0647 -382.409
lfingers 7.12502
lthumb 15.9213 6.95615
rfemur -78.9561 -44.2168 -23.5591
rtibia 130.836
rfoot -3.29203 20.7416
rtoes 11.0323
lfemur 699.014 43.0883 746.243
ltibia 116.893
lfoot -3.42884 -13.9232
ltoes 1.26215
2329
root -7.18899 8.38845 -0.140556 20.2446 -485.763 -423.812
lowerback 16.8912 -9.30341 2.5526
upperback 12.2774 -14.0893 1.83652
thorax 3.9634 -7.84617 2.31831
lowerneck -2.15488 8.51249 -0.945896
upperneck -0.662649 10.9972 -22.5755
head 1.44304 4.87394 -6.39687
rclavicle -1.33583e-013 1.33583e-013
rhumerus -52.9224 -43.5245 -8.61157
rradius 18.0037
rwrist 23.584
rhand -10.6393 -52.7733
rfingers 7.12502
rthumb 15.3679 637.818
lclavicle -1.33583e-013 1.33583e-013
lhumerus 1.91407 -19.3465 31.6368
lradius 25.3762
lwrist -9.80851
lhand -9.78327 -381.803
lfingers 7.12502
lthumb 16.1923 7.54044
rfemur -78.5199 -47.7162 -23.9683
rtibia 132.532
rfoot -4.10617 21.1104
rtoes 11.8907
lfemur 695.8 41.5449 743.278
ltibia 113.303
lfoot -3.4827 -14.4463
ltoes -0.760747
2330
root -7.2469 8.39496 -0.176735 20.2433 -486.24 -422.795
lowerback 17.3165 -9.11644 2.79392
upperback 12.4231 -13.7904 1.63357
thorax 3.79427 -7.67769 2.02128
lowerneck -1.58159 8.63544 -0.991732
upperneck -1.48232 10.9692 -22.3945
head 1.08604 4.98101 -6.37452
rclavicle 1.63799e-013 -9.85972e-014
rhumerus -52.5308 -43.116 -9.07424
rradius 18.5035
rwrist 22.767
rhand -6.26281 -51.9312
rfingers 7.12502
rthumb 19.5797 639.035
lclavicle 1.63799e-013 -9.85972e-014
lhumerus 0.055038 -18.9225 33.3804
lradius 24.8724
lwrist -9.93372
lhand -9.72248 -381.294
lfingers 7.12502
lthumb 16.2509 8.04451
rfemur -77.9256 -49.8604 -24.797
rtibia 133.262
rfoot -5.955 22.6462
rtoes 6.40598
lfemur 692.91 39.8426 739.784
ltibia 109.445
lfoot -3.38628 -14.9488
ltoes -1.69312
2331
root -7.28555 8.40086 -0.210238 19.1573 -486.449 -419.432
lowerback 17.3329 -9.02132 4.2036
upperback 12.5015 -13.4833 1.87296
thorax 3.64455 -7.44192 1.51247
lowerneck -1.73542 8.96831 -0.980712
upperneck -1.99929 11.3668 -22.1969
head 0.994189 5.22633 -6.29915
rclavicle -1.90833e-014 1.17681e-013
rhumerus -52.7847 -45.2246 -7.51694
rradius 18.3436
rwrist 23.8434
rhand -2.48725 -51.0235
rfingers 7.12502
rthumb 23.206 640.355
lclavicle -1.90833e-014 1.17681e-013
lhumerus -1.89865 -17.6326 35.1923
lradius 24.2392
lwrist -10.686
lhand -9.48359 -381.06
lfingers 7.12502
lthumb 16.4809 8.2602
rfemur -78.8403 -49.8208 -22.0176
rtibia 133.37
rfoot -9.36802 24.4338
rtoes -4.49377
lfemur 689.556 38.9722 738.376
ltibia 105.568
lfoot -2.75896 -15.6224
ltoes -2.93045
2332
root -7.34598 8.4058 -0.246068 19.6823 -487.222 -418.619
lowerback 17.6394 -8.829 3.7351
upperback 12.5725 -13.2848 1.80082
thorax 3.6413 -7.3742 1.69158
lowerneck -1.75872 9.39336 -1.03535
upperneck -2.50768 11.8691 -22.2779
head 0.907394 5.51651 -6.30216
rclavicle 4.92986e-014 9.54166e-015
rhumerus -52.0261 -47.2528 -6.45995
rradius 17.943
rwrist 24.2939
rhand 0.909152 -50.8515
rfingers 7.12502
rthumb 26.4609 640.976
lclavicle 4.92986e-014 9.54166e-015
lhumerus -4.34529 -15.381 37.4605
lradius 23.4935
lwrist -12.2184
lhand -9.38719 -380.789
lfingers 7.12502
lthumb 16.5737 8.52279
rfemur -78.7125 -49.4829 -21.4281
rtibia 132.769
rfoot -14.0808 25.901
rtoes -4.08238
lfemur 687.322 37.3024 735.674
ltibia 101.348
lfoot -2.27575 -15.3432
ltoes -4.85084
2333
root -7.40596 8.40455 -0.278248 20.0357 -487.996 -417.362
lowerback 17.836 -8.64346 3.45574
upperback 12.5457 -13.0533 1.7957
thorax 3.56081 -7.27182 1.83239
lowerneck -1.39831 9.80956 -1.21761
upperneck -3.27671 12.2652 -22.3887
head 0.659526 5.79784 -6.32786
rclavicle -1.28812e-013 6.36111e-015
rhumerus -49.4056 -47.5948 -7.87358
rradius 17.7498
rwrist 22.7906
rhand 4.03558 -51.5782
rfingers 7.12502
rthumb 29.4497 640.736
lclavicle -1.28812e-013 6.36111e-015
lhumerus -6.7763 -13.3745 39.5754
lradius 22.7773
lwrist -13.22
lhand -9.92542 -380.516
lfingers 7.12502
lthumb 16.0555 8.83892
rfemur -79.0897 -49.0201 -19.8736
rtibia 132.187
rfoot -18.4599 25.9632
rtoes -4.22673
lfemur 685.269 35.8119 733.765
ltibia 97.0432
lfoot -1.41463 -14.6712
ltoes -6.52596
2334
root -7.46105 8.39645 -0.307806 20.6837 -488.866 -416.25
lowerback 17.8655 -8.40733 3.10693
upperback 12.5745 -12.763 1.61225
thorax 3.58995 -7.13 1.7818
lowerneck -1.60661 10.1795 -1.06147
upperneck -3.63063 12.7445 -22.4829
head 0.663097 6.05505 -6.35546
rclavicle 1.54257e-013 -3.18055e-014
rhumerus -46.709 -48.2043 -9.77198
rradius 17.6324
rwrist 21.4961
rhand 5.5478 -51.9306
rfingers 7.12502
rthumb 30.8923 640.647
lclavicle 1.54257e-013 -3.18055e-014
lhumerus -8.84069 -12.1373 41.2097
lradius 22.0667
lwrist -13.4674
lhand -10.1727 -381.221
lfingers 7.12502
lthumb 15.8174 8.15296
rfemur -80.2116 -49.6211 -18.1929
rtibia 132.182
rfoot -21.3728 25.6974
rtoes -0.934611
lfemur 683.363 34.4077 732.104
ltibia 92.6909
lfoot -0.236804 -13.2636
ltoes -7.22954
